<mxfile host="app.diagrams.net" modified="2022-03-31T06:55:27.353Z" agent="5.0 (Windows)" etag="0-i_TryyuLC6uhLZgeLs" version="17.3.0" type="github">
  <diagram id="3JvWg4y7LYD9_zcvrOZJ" name="Page-1">
    <mxGraphModel dx="868" dy="507" grid="1" gridSize="10" guides="1" tooltips="1" connect="1" arrows="1" fold="1" page="1" pageScale="1" pageWidth="850" pageHeight="1100" math="0" shadow="0">
      <root>
        <mxCell id="0" />
        <mxCell id="1" parent="0" />
        <mxCell id="vYf2kmA1AyWiiWl9E7tb-1" style="edgeStyle=orthogonalEdgeStyle;rounded=0;orthogonalLoop=1;jettySize=auto;html=1;exitX=0;exitY=0.5;exitDx=0;exitDy=0;" parent="1" source="fdYSyBXo2xMWsbgV3MG8-1" edge="1">
          <mxGeometry relative="1" as="geometry">
            <mxPoint x="310" y="370" as="targetPoint" />
          </mxGeometry>
        </mxCell>
        <mxCell id="fdYSyBXo2xMWsbgV3MG8-1" value="" style="swimlane;startSize=0;" parent="1" vertex="1">
          <mxGeometry x="380" y="300" width="140" height="140" as="geometry" />
        </mxCell>
        <mxCell id="fdYSyBXo2xMWsbgV3MG8-2" value="Jetson" style="text;html=1;align=center;verticalAlign=middle;resizable=0;points=[];autosize=1;strokeColor=none;fillColor=none;" parent="fdYSyBXo2xMWsbgV3MG8-1" vertex="1">
          <mxGeometry x="45" y="60" width="50" height="20" as="geometry" />
        </mxCell>
        <mxCell id="9AblWFVfkV2AU8UrJ_j5-1" value="" style="endArrow=classic;startArrow=classic;html=1;rounded=0;" edge="1" parent="1">
          <mxGeometry width="50" height="50" relative="1" as="geometry">
            <mxPoint x="440" y="300" as="sourcePoint" />
            <mxPoint x="440" y="170" as="targetPoint" />
            <Array as="points">
              <mxPoint x="440" y="220" />
            </Array>
          </mxGeometry>
        </mxCell>
        <mxCell id="9AblWFVfkV2AU8UrJ_j5-2" value="" style="triangle;whiteSpace=wrap;html=1;" vertex="1" parent="1">
          <mxGeometry x="160" y="190" width="60" height="80" as="geometry" />
        </mxCell>
      </root>
    </mxGraphModel>
  </diagram>
</mxfile>
